<?xml version="1.0" encoding="utf-8"?>
<svg viewBox="556.965 244.776 42 42" xmlns="http://www.w3.org/2000/svg">
  <path d="M 598.405 283.565 L 589.597 274.785 C 591.766 271.837 592.884 268.233 592.555 264.564 C 592.16 259.978 589.794 255.457 585.784 251.394 C 574.281 240.059 560.345 246.677 559.819 246.873 L 559.293 247.07 L 559.03 247.66 C 558.965 247.856 552.128 262.074 563.698 273.606 C 568.299 278.192 573.426 280.551 578.291 280.551 C 581.38 280.551 584.535 279.437 587.099 277.472 L 595.907 286.251 C 596.302 286.645 596.828 286.776 597.222 286.776 C 597.616 286.776 598.142 286.579 598.537 286.251 C 599.128 285.334 599.128 284.286 598.405 283.565 Z M 566.261 270.985 C 557.65 262.402 561.134 252.377 562.054 249.822 C 564.618 248.708 574.675 245.497 583.221 254.015 C 586.704 257.488 588.545 261.157 588.874 264.761 C 589.071 267.512 588.479 270.068 586.836 272.033 L 582.103 267.316 L 582.103 258.798 C 582.103 257.684 581.38 256.964 580.263 256.964 C 579.145 256.964 578.422 257.684 578.422 258.798 L 578.422 263.712 L 573.36 258.602 C 572.637 257.881 571.52 257.881 570.797 258.602 C 570.074 259.322 570.074 260.436 570.797 261.157 L 574.281 264.63 L 569.351 264.63 C 568.233 264.63 567.51 265.35 567.51 266.464 C 567.51 267.578 568.233 268.299 569.351 268.299 L 577.962 268.299 L 579.079 269.413 L 584.207 274.523 C 579.342 278.454 572.309 276.947 566.261 270.985 Z" fill="white"/>
</svg>