<?xml version="1.0" encoding="utf-8"?>
<svg viewBox="551.168 234.895 42 42" xmlns="http://www.w3.org/2000/svg">
  <path d="M 592.607 273.684 L 583.799 264.904 C 585.968 261.956 587.086 258.352 586.757 254.683 C 586.363 250.096 583.996 245.575 579.987 241.513 C 568.483 230.178 554.547 236.796 554.021 236.992 L 553.496 237.189 L 553.233 237.778 C 553.167 237.975 546.331 252.193 557.9 263.725 C 562.501 268.311 567.628 270.67 572.493 270.67 C 575.582 270.67 578.738 269.556 581.301 267.591 L 590.11 276.37 C 590.504 276.764 591.03 276.895 591.424 276.895 C 591.819 276.895 592.345 276.698 592.739 276.37 C 593.331 275.453 593.331 274.405 592.607 273.684 Z M 560.463 261.104 C 551.852 252.521 555.336 242.496 556.256 239.941 C 558.82 238.827 568.877 235.616 577.423 244.134 C 580.907 247.607 582.747 251.276 583.076 254.879 C 583.273 257.631 582.682 260.187 581.038 262.152 L 576.305 257.435 L 576.305 248.917 C 576.305 247.803 575.582 247.082 574.465 247.082 C 573.347 247.082 572.624 247.803 572.624 248.917 L 572.624 253.831 L 567.563 248.72 C 566.84 248 565.722 248 564.999 248.72 C 564.276 249.441 564.276 250.555 564.999 251.276 L 568.483 254.748 L 563.553 254.748 C 562.435 254.748 561.712 255.469 561.712 256.583 C 561.712 257.697 562.435 258.418 563.553 258.418 L 572.164 258.418 L 573.282 259.531 L 578.409 264.642 C 573.545 268.573 566.511 267.066 560.463 261.104 Z" fill="#E84E4E"/>
</svg>